<svg width="162" height="148" version="1.1" xmlns="http://www.w3.org/2000/svg" desc="Created with imagetracer.js version 1.2.6" ><path fill="rgb(251,6,3)" stroke="rgb(251,6,3)" stroke-width="1" opacity="1" d="M 37.5 1 L 42 2.5 L 39.5 4 L 39.5 2 Q 36.5 2.5 37.5 1 Z " /><path fill="rgb(251,6,3)" stroke="rgb(251,6,3)" stroke-width="1" opacity="1" d="M 48.5 2 L 51.5 4 L 53.5 4 Q 57.3 3.3 58 5.5 L 57.5 7 L 56.5 5 L 56 7 L 50 5.5 L 50.5 4 L 47.5 6 L 48.5 2 Z " /><path fill="rgb(251,6,3)" stroke="rgb(251,6,3)" stroke-width="1" opacity="1" d="M 108.5 3 L 112 4.5 L 111.5 6 L 113.5 7 L 116.5 6 L 116.5 7 L 112.5 8 L 110.5 8 L 105.5 6 L 105.5 7 L 107 7.5 L 105.5 8 L 101 7.5 L 107.5 5 Q 108.8 7.3 110 4.5 L 108.5 3 Z " /><path fill="rgb(251,6,3)" stroke="rgb(251,6,3)" stroke-width="1" opacity="1" d="M 131.5 3 L 134 3.5 L 131.5 4 L 131.5 3 Z " /><path fill="rgb(251,6,3)" stroke="rgb(251,6,3)" stroke-width="1" opacity="1" d="M 41.5 4 L 43 4.5 L 40.5 6 L 41.5 4 Z " /><path fill="rgb(251,6,3)" stroke="rgb(251,6,3)" stroke-width="1" opacity="1" d="M 117.5 4 L 124 4.5 L 117.5 5 L 117.5 4 Z " /><path fill="rgb(251,6,3)" stroke="rgb(251,6,3)" stroke-width="1" opacity="1" d="M 24.5 5 Q 29.9 3.1 29 6.5 L 27.5 6 Q 24.9 5.3 26 8 L 23 8 L 24.5 5 Z " /><path fill="rgb(251,6,3)" stroke="rgb(251,6,3)" stroke-width="1" opacity="1" d="M 37.5 5 L 39 5.5 L 32 8.5 L 32.5 10 L 30 9.5 L 32 6.5 L 33.5 7 L 37.5 5 Z " /><path fill="rgb(251,6,3)" stroke="rgb(251,6,3)" stroke-width="1" opacity="1" d="M 128.5 5 L 129 7 L 125 6.5 L 128.5 5 Z " /><path fill="rgb(251,6,3)" stroke="rgb(251,6,3)" stroke-width="1" opacity="1" d="M 135.5 5 L 139 6.5 L 137.5 7 L 135.5 5 Z " /><path fill="rgb(251,6,3)" stroke="rgb(251,6,3)" stroke-width="1" opacity="1" d="M 141.5 8 L 144 9.5 L 142.5 10 L 141.5 8 Z " /><path fill="rgb(251,6,3)" stroke="rgb(251,6,3)" stroke-width="1" opacity="1" d="M 48 9 L 51 10.5 L 48 11 L 48 9 Z " /><path fill="rgb(251,6,3)" stroke="rgb(251,6,3)" stroke-width="1" opacity="1" d="M 105.5 9 L 106.5 11 L 104 10.5 L 105.5 9 Z " /><path fill="rgb(251,6,3)" stroke="rgb(251,6,3)" stroke-width="1" opacity="1" d="M 17.5 10 L 18.5 12 L 17.5 10 Z " /><path fill="rgb(251,6,3)" stroke="rgb(251,6,3)" stroke-width="1" opacity="1" d="M 58.5 10 L 62 11.5 L 61.5 14 L 57.5 12 L 56 12.5 L 58.5 10 Z " /><path fill="rgb(251,6,3)" stroke="rgb(251,6,3)" stroke-width="1" opacity="1" d="M 21.5 11 Q 23.8 10.3 23 12.5 L 21.5 11 Z " /><path fill="rgb(251,6,3)" stroke="rgb(251,6,3)" stroke-width="1" opacity="1" d="M 66 11 L 69 12.5 L 68 13.5 L 69.5 16 L 67.5 15 L 66 15.5 L 66 13.5 L 66 11 Z " /><path fill="rgb(251,6,3)" stroke="rgb(251,6,3)" stroke-width="1" opacity="1" d="M 95 11 L 100.5 13 L 103 11.5 L 102 14 L 106 14.5 L 103.5 16 L 101.5 14 L 96.5 13 L 94 14.5 L 93 12.5 L 95 12.5 L 95 11 Z " /><path fill="rgb(251,6,3)" stroke="rgb(251,6,3)" stroke-width="1" opacity="1" d="M 137 11 L 140 12.5 L 139.5 14 L 137 13 L 137 11 Z " /><path fill="rgb(251,6,3)" stroke="rgb(251,6,3)" stroke-width="1" opacity="1" d="M 144.5 11 L 150 15.5 L 147.5 14 L 145 15.5 L 146 13.5 L 144 13.5 L 144.5 11 Z " /><path fill="rgb(251,6,3)" stroke="rgb(251,6,3)" stroke-width="1" opacity="1" d="M 15.5 13 L 20 14.5 L 16 16.5 L 15 19.5 L 16 22.5 L 15 22.5 L 14.5 21 L 13 21.5 L 17 14.5 L 15.5 13 Z " /><path fill="rgb(251,6,3)" stroke="rgb(251,6,3)" stroke-width="1" opacity="1" d="M 70.5 13 L 71.5 15 L 70.5 13 Z " /><path fill="rgb(251,6,3)" stroke="rgb(251,6,3)" stroke-width="1" opacity="1" d="M 12.5 14 Q 15.5 15.5 12.5 17 L 12.5 14 Z " /><path fill="rgb(251,6,3)" stroke="rgb(251,6,3)" stroke-width="1" opacity="1" d="M 49.5 14 L 50 16 L 48 15.5 L 49.5 14 Z " /><path fill="rgb(251,6,3)" stroke="rgb(251,6,3)" stroke-width="1" opacity="1" d="M 91.5 14 Q 93.8 13.3 93 15.5 L 90 16.5 Q 91.1 19.8 88.5 19 Q 85.5 17.5 88.5 16 L 91.5 14 Z " /><path fill="rgb(251,6,3)" stroke="rgb(251,6,3)" stroke-width="1" opacity="1" d="M 38.5 15 L 43 15.5 L 38.5 16 L 38.5 15 Z " /><path fill="rgb(251,6,3)" stroke="rgb(251,6,3)" stroke-width="1" opacity="1" d="M 73.5 17 L 74.5 21 L 72 22.5 L 74 23.5 L 74.5 22 L 75 25 L 70 21.5 L 69 18 L 73.5 17 Z " /><path fill="rgb(251,6,3)" stroke="rgb(251,6,3)" stroke-width="1" opacity="1" d="M 11.5 18 L 12 20 L 10 19.5 L 11.5 18 Z " /><path fill="rgb(251,6,3)" stroke="rgb(251,6,3)" stroke-width="1" opacity="1" d="M 85.5 20 L 88 20.5 L 88 22.5 L 85.5 25 L 84 22 L 86 21.5 L 85.5 20 Z " /><path fill="rgb(251,6,3)" stroke="rgb(251,6,3)" stroke-width="1" opacity="1" d="M 76.5 22 L 77.5 24 Q 74.7 24.7 76.5 22 Z " /><path fill="rgb(251,6,3)" stroke="rgb(251,6,3)" stroke-width="1" opacity="1" d="M 151.5 22 L 154 22.5 L 152.5 25 L 155.5 23 L 156 25.5 L 157 28.5 L 156 28.5 L 155.5 27 L 154.5 29 L 153 28.5 L 152.5 31 L 149 23.5 L 151 23.5 L 151.5 22 Z " /><path fill="rgb(251,6,3)" stroke="rgb(251,6,3)" stroke-width="1" opacity="1" d="M 6.5 23 L 9 23.5 L 7 24.5 L 8 29 Q 3.1 30.8 5 24.5 L 6.5 23 Z M 7 25 L 6 28 L 7 28 L 7 25 Z " /><path fill="rgb(251,6,3)" stroke="rgb(251,6,3)" stroke-width="1" opacity="1" d="M 88.5 24 L 90 24.5 L 88 25 L 89 28.5 L 87 27.5 L 88.5 24 Z " /><path fill="rgb(251,6,3)" stroke="rgb(251,6,3)" stroke-width="1" opacity="1" d="M 80.5 25 L 81.5 27 L 80.5 25 Z " /><path fill="rgb(251,6,3)" stroke="rgb(251,6,3)" stroke-width="1" opacity="1" d="M 77.5 29 L 80 30 Q 81 33 78 32 L 77.5 29 Z " /><path fill="rgb(251,6,3)" stroke="rgb(251,6,3)" stroke-width="1" opacity="1" d="M 158.5 29 L 159 32 L 157 31.5 L 158.5 29 Z " /><path fill="rgb(251,6,3)" stroke="rgb(251,6,3)" stroke-width="1" opacity="1" d="M 144.5 30 L 147 30.5 L 144.5 31 L 144.5 30 Z " /><path fill="rgb(251,6,3)" stroke="rgb(251,6,3)" stroke-width="1" opacity="1" d="M 5.5 31 L 6.5 33 Q 7.8 30.7 9 33.5 L 8 36.5 L 9 38.5 L 7 38.5 L 5.5 42 L 4 38.5 Q 6.7 37.8 6 33.5 L 5.5 31 Z " /><path fill="rgb(251,6,3)" stroke="rgb(251,6,3)" stroke-width="1" opacity="1" d="M 1.5 45 L 4 50.5 L 2 51.5 L 3 48.5 Q 0 47.5 1.5 45 Z " /><path fill="rgb(251,6,3)" stroke="rgb(251,6,3)" stroke-width="1" opacity="1" d="M 8.5 49 L 9 51.5 L 7.5 54 L 7 52.5 L 8.5 49 Z " /><path fill="rgb(251,6,3)" stroke="rgb(251,6,3)" stroke-width="1" opacity="1" d="M 6.5 56 L 8 58.5 L 7 58.5 L 6.5 57 L 6 59.5 L 6.5 61 Q 1.5 58.5 6.5 56 Z " /><path fill="rgb(251,6,3)" stroke="rgb(251,6,3)" stroke-width="1" opacity="1" d="M 157.5 59 L 156.5 61 L 157.5 59 Z " /><path fill="rgb(251,6,3)" stroke="rgb(251,6,3)" stroke-width="1" opacity="1" d="M 153.5 61 Q 156.5 60.1 155 64.5 L 155.5 66 L 153 65.5 L 154 62.5 L 153.5 61 Z " /><path fill="rgb(251,6,3)" stroke="rgb(251,6,3)" stroke-width="1" opacity="1" d="M 146 63 Q 149.3 61.9 148 66 Q 144.7 67.1 146 63 Z " /><path fill="rgb(251,6,3)" stroke="rgb(251,6,3)" stroke-width="1" opacity="1" d="M 11.5 64 L 14 64 L 14 69.5 L 12 68.5 L 11.5 64 Z " /><path fill="rgb(251,6,3)" stroke="rgb(251,6,3)" stroke-width="1" opacity="1" d="M 5.5 66 Q 7.3 69.1 9 67.5 L 7.5 71 L 5 67.5 L 5.5 66 Z " /><path fill="rgb(251,6,3)" stroke="rgb(251,6,3)" stroke-width="1" opacity="1" d="M 150.5 67 L 150 68.5 L 151.5 72 L 153 69.5 L 151 69.5 L 152.5 67 L 155 70.5 L 153 71.5 L 155 72.5 L 152.5 74 Q 150.3 69.8 148 74.5 Q 149.1 77.8 146.5 77 L 147 75.5 L 150.5 67 Z " /><path fill="rgb(251,6,3)" stroke="rgb(251,6,3)" stroke-width="1" opacity="1" d="M 154.5 67 Q 156.8 66.3 156 68.5 L 154.5 67 Z " /><path fill="rgb(251,6,3)" stroke="rgb(251,6,3)" stroke-width="1" opacity="1" d="M 9.5 72 L 10.5 74 L 9.5 72 Z " /><path fill="rgb(251,6,3)" stroke="rgb(251,6,3)" stroke-width="1" opacity="1" d="M 15.5 72 L 14.5 74 L 13 73.5 L 15.5 72 Z " /><path fill="rgb(251,6,3)" stroke="rgb(251,6,3)" stroke-width="1" opacity="1" d="M 9.5 75 L 10.5 77 L 9.5 75 Z " /><path fill="rgb(251,6,3)" stroke="rgb(251,6,3)" stroke-width="1" opacity="1" d="M 11.5 78 Q 13.7 82.3 16 80.5 L 14.5 84 L 13.5 81 L 12 81.5 L 12.5 80 Q 9.7 80.7 11.5 78 Z " /><path fill="rgb(251,6,3)" stroke="rgb(251,6,3)" stroke-width="1" opacity="1" d="M 136.5 80 Q 141.3 78.7 140 82 Q 136.2 82.8 136.5 80 Z " /><path fill="rgb(251,6,3)" stroke="rgb(251,6,3)" stroke-width="1" opacity="1" d="M 146.5 81 L 147.5 83 L 149 82.5 L 146.5 86 L 144 85.5 L 147 83.5 L 146.5 81 Z " /><path fill="rgb(251,6,3)" stroke="rgb(251,6,3)" stroke-width="1" opacity="1" d="M 16.5 83 L 17.5 85 L 15.5 86 L 16 84.5 L 16.5 83 Z " /><path fill="rgb(251,6,3)" stroke="rgb(251,6,3)" stroke-width="1" opacity="1" d="M 21.5 87 L 23 88.5 L 22.5 91 L 20 90.5 Q 23.1 88.8 21.5 87 Z " /><path fill="rgb(251,6,3)" stroke="rgb(251,6,3)" stroke-width="1" opacity="1" d="M 135 87 L 138 87.5 L 137.5 90 L 135.5 90 L 134 89.5 L 135 87 Z " /><path fill="rgb(251,6,3)" stroke="rgb(251,6,3)" stroke-width="1" opacity="1" d="M 28 89 Q 30.7 87.9 30 90.5 L 32 93.5 L 29.5 92 Q 26.5 92.7 28 89 Z " /><path fill="rgb(251,6,3)" stroke="rgb(251,6,3)" stroke-width="1" opacity="1" d="M 136.5 91 L 139 91.5 L 137 92 Q 138.1 95.3 134 94 Q 132.9 91.3 135.5 92 L 136.5 91 Z " /><path fill="rgb(251,6,3)" stroke="rgb(251,6,3)" stroke-width="1" opacity="1" d="M 24 93 Q 27 91.8 26 95.5 L 24 94.5 L 24 93 Z " /><path fill="rgb(251,6,3)" stroke="rgb(251,6,3)" stroke-width="1" opacity="1" d="M 28.5 96 L 27.5 98 L 28.5 96 Z " /><path fill="rgb(251,6,3)" stroke="rgb(251,6,3)" stroke-width="1" opacity="1" d="M 115.5 96 L 119 96.5 L 116.5 98 L 115.5 96 Z " /><path fill="rgb(251,6,3)" stroke="rgb(251,6,3)" stroke-width="1" opacity="1" d="M 134.5 96 L 133.5 98 L 134.5 96 Z " /><path fill="rgb(251,6,3)" stroke="rgb(251,6,3)" stroke-width="1" opacity="1" d="M 131.5 97 L 131.5 99 L 133 99.5 L 130.5 101 L 130.5 99 L 129 98.5 L 131.5 97 Z " /><path fill="rgb(251,6,3)" stroke="rgb(251,6,3)" stroke-width="1" opacity="1" d="M 29.5 98 L 36 102.5 L 34.5 103 L 32 102 L 30.5 99 L 29.5 98 Z " /><path fill="rgb(251,6,3)" stroke="rgb(251,6,3)" stroke-width="1" opacity="1" d="M 122 99 Q 125 98 124 101 Q 121 102 122 99 Z " /><path fill="rgb(251,6,3)" stroke="rgb(251,6,3)" stroke-width="1" opacity="1" d="M 45.5 103 L 46.5 105 Q 43.7 105.7 45.5 103 Z " /><path fill="rgb(251,6,3)" stroke="rgb(251,6,3)" stroke-width="1" opacity="1" d="M 119.5 103 L 124 106.5 L 122 107.5 L 121.5 106 L 120.5 109 L 119.5 103 Z " /><path fill="rgb(251,6,3)" stroke="rgb(251,6,3)" stroke-width="1" opacity="1" d="M 36.5 104 L 41 105.5 L 39.5 108 L 37.5 105 L 36.5 104 Z " /><path fill="rgb(251,6,3)" stroke="rgb(251,6,3)" stroke-width="1" opacity="1" d="M 41.5 107 L 44 108.5 L 46.5 113 L 47.5 111 L 50 115.5 L 48 114.5 L 47.5 113 L 46.5 115 L 41.5 107 Z " /><path fill="rgb(251,6,3)" stroke="rgb(251,6,3)" stroke-width="1" opacity="1" d="M 112 107 Q 115.3 105.9 114 110 Q 110.7 111.1 112 107 Z " /><path fill="rgb(251,6,3)" stroke="rgb(251,6,3)" stroke-width="1" opacity="1" d="M 116.5 111 L 119 112.5 L 116.5 114 L 114 113.5 L 116.5 111 Z " /><path fill="rgb(251,6,3)" stroke="rgb(251,6,3)" stroke-width="1" opacity="1" d="M 108 112 Q 111 111 110 114 L 113 114 L 113 116.5 L 109.5 114 Q 106.9 114.7 108 112 Z " /><path fill="rgb(251,6,3)" stroke="rgb(251,6,3)" stroke-width="1" opacity="1" d="M 54.5 114 L 58 116.5 L 56.5 116 L 54.5 115 L 53 115.5 L 54.5 114 Z " /><path fill="rgb(251,6,3)" stroke="rgb(251,6,3)" stroke-width="1" opacity="1" d="M 99 114 L 102 114 L 102 116 Q 104.7 114.9 104 117.5 L 101.5 116 Q 97.8 117 99 114 Z " /><path fill="rgb(251,6,3)" stroke="rgb(251,6,3)" stroke-width="1" opacity="1" d="M 50.5 117 L 53.5 118 Q 54.8 115.8 56 118.5 L 55.5 120 L 57 120.5 L 54 121 Q 55.1 118.3 52.5 119 L 51 119.5 L 51.5 118 L 50.5 117 Z " /><path fill="rgb(251,6,3)" stroke="rgb(251,6,3)" stroke-width="1" opacity="1" d="M 62.5 119 L 64 121.5 L 62 120.5 L 62.5 119 Z " /><path fill="rgb(251,6,3)" stroke="rgb(251,6,3)" stroke-width="1" opacity="1" d="M 96 119 L 98 119.5 L 97.5 121 L 99 121.5 L 97 122.5 L 96 119 Z " /><path fill="rgb(251,6,3)" stroke="rgb(251,6,3)" stroke-width="1" opacity="1" d="M 105.5 119 L 107 121.5 L 105 122.5 L 106 120.5 L 103.5 122 L 102 121.5 L 105.5 119 Z " /><path fill="rgb(251,6,3)" stroke="rgb(251,6,3)" stroke-width="1" opacity="1" d="M 57.5 122 L 58.5 124 L 57.5 122 Z " /><path fill="rgb(251,6,3)" stroke="rgb(251,6,3)" stroke-width="1" opacity="1" d="M 60.5 123 L 64 124.5 L 61.5 125 L 60.5 123 Z " /><path fill="rgb(251,6,3)" stroke="rgb(251,6,3)" stroke-width="1" opacity="1" d="M 102.5 123 L 102 124.5 L 100 127.5 Q 98.3 131.7 96.5 129 L 95 129.5 L 95.5 133 L 93.5 128 L 95.5 128 Q 98.1 128.8 97 125.5 L 98 125.5 L 98.5 128 L 102.5 123 Z " /><path fill="rgb(251,6,3)" stroke="rgb(251,6,3)" stroke-width="1" opacity="1" d="M 63.5 126 L 62.5 128 L 63.5 126 Z " /><path fill="rgb(251,6,3)" stroke="rgb(251,6,3)" stroke-width="1" opacity="1" d="M 65.5 128 L 66 130 L 64 129.5 L 65.5 128 Z " /><path fill="rgb(251,6,3)" stroke="rgb(251,6,3)" stroke-width="1" opacity="1" d="M 76 128 Q 79 127 78 130 Q 75 131 76 128 Z " /><path fill="rgb(251,6,3)" stroke="rgb(251,6,3)" stroke-width="1" opacity="1" d="M 80.5 128 L 81.5 130 Q 78.7 130.7 80.5 128 Z " /><path fill="rgb(251,6,3)" stroke="rgb(251,6,3)" stroke-width="1" opacity="1" d="M 89.5 128 L 90.5 130 L 87.5 131 L 87.5 130 Q 90 130.7 89.5 128 Z " /><path fill="rgb(251,6,3)" stroke="rgb(251,6,3)" stroke-width="1" opacity="1" d="M 71.5 130 L 74 130.5 L 71.5 131 L 71.5 130 Z " /><path fill="rgb(251,6,3)" stroke="rgb(251,6,3)" stroke-width="1" opacity="1" d="M 69.5 132 L 73 133.5 L 73.5 135 L 76 133.5 Q 76.8 135.8 74.5 135 L 75 136.5 L 74.5 138 L 74 136 L 71.5 137 L 70.5 134 L 68 135 L 69.5 132 Z " /><path fill="rgb(251,6,3)" stroke="rgb(251,6,3)" stroke-width="1" opacity="1" d="M 92.5 132 L 93 133.5 L 92.5 136 Q 90.3 136.8 91 134.5 L 89 135.5 L 89.5 137 Q 86 135 90.5 133 L 92 133.5 L 92.5 132 Z " /><path fill="rgb(251,6,3)" stroke="rgb(251,6,3)" stroke-width="1" opacity="1" d="M 82.5 135 L 82.5 138 Q 80.3 137.3 81 139.5 Q 83.7 141.2 79.5 143 L 76 140.5 L 78.5 142 L 80 141.5 L 78.5 139 L 80 139.5 L 79 136.5 L 80 136.5 L 80.5 138 L 82.5 135 Z " /><path fill="rgb(251,6,3)" stroke="rgb(251,6,3)" stroke-width="1" opacity="1" d="M 77.5 137 L 76.5 139 L 77.5 137 Z " /><path fill="rgb(251,6,3)" stroke="rgb(251,6,3)" stroke-width="1" opacity="1" d="M 87.5 138 L 89 138.5 L 84.5 141 L 85.5 139 L 87.5 138 Z " /><path fill="rgb(0,0,0)" stroke="rgb(0,0,0)" stroke-width="1" opacity="0" d="M 0 0 L 32 0.5 Q 15.3 4.3 7 16.5 L 0.5 31 L 0 0 Z " /><path fill="rgb(0,0,0)" stroke="rgb(0,0,0)" stroke-width="1" opacity="0" d="M 52.5 0 L 110 0.5 Q 93.8 4.8 85 16.5 L 82 22 Q 79.3 23.1 80 20.5 L 69.5 9 L 57.5 2 L 52.5 1 L 52.5 0 Z " /><path fill="rgb(0,0,0)" stroke="rgb(0,0,0)" stroke-width="1" opacity="0" d="M 130.5 0 L 162 0 L 162 31.5 L 161 31.5 Q 157.5 15 145.5 7 L 136.5 2 L 130.5 1 L 130.5 0 Z " /><path fill="rgb(0,0,0)" stroke="rgb(0,0,0)" stroke-width="1" opacity="0" d="M 0.5 58 L 4 71.5 L 9 80.5 Q 19 95 32.5 106 L 80 147.5 L 0 148 L 0.5 58 Z " /><path fill="rgb(0,0,0)" stroke="rgb(0,0,0)" stroke-width="1" opacity="0" d="M 161.5 58 L 162 148 L 82 147.5 L 129.5 106 L 147 88.5 L 158 71.5 L 161.5 58 Z " /><path fill="rgb(254,7,6)" stroke="rgb(254,7,6)" stroke-width="1" opacity="1" d="M 117.5 1 L 123 2.5 L 118 4 L 117.5 1 Z " /><path fill="rgb(254,7,6)" stroke="rgb(254,7,6)" stroke-width="1" opacity="1" d="M 42.5 2 L 47 5.5 L 48 11 L 51 10.5 L 50 8 L 52 8 Q 50.5 11.8 53.5 11 L 55.5 11 L 57.5 10 L 58.5 13 L 61 13.5 L 58 14 Q 59.8 18.9 53.5 17 L 53.5 16 Q 58.3 17.3 57 14 L 53.5 15 L 51 14 L 49.5 17 L 47 15.5 L 49 14.5 L 48.5 16 Q 50.8 16.8 50 14.5 L 51 12 Q 46.4 13.3 45 10.5 L 47 9.5 L 45 9 Q 46.1 6.3 43.5 7 L 42 3.5 L 42.5 2 Z " /><path fill="rgb(254,7,6)" stroke="rgb(254,7,6)" stroke-width="1" opacity="1" d="M 36.5 3 L 41 4.5 Q 39.8 7.3 38.5 5 L 36.5 3 Z " /><path fill="rgb(254,7,6)" stroke="rgb(254,7,6)" stroke-width="1" opacity="1" d="M 53.5 3 L 53 4.5 L 51.5 7 L 52 5.5 L 53.5 3 Z " /><path fill="rgb(254,7,6)" stroke="rgb(254,7,6)" stroke-width="1" opacity="1" d="M 49.5 4 L 51 4.5 L 49.5 7 Q 46.5 5.5 49.5 4 Z " /><path fill="rgb(254,7,6)" stroke="rgb(254,7,6)" stroke-width="1" opacity="1" d="M 116.5 4 L 117 6 L 120.5 5 L 129 7 L 128.5 5 L 126.5 6 L 126.5 5 L 130 4 L 128 9.5 L 129.5 9 L 132 8.5 L 131.5 5 Q 133 8.5 134.5 6 L 139 7.5 L 137.5 8 L 135 7 L 134.5 10 Q 133 7.5 131.5 11 L 127.5 12 L 125.5 12 Q 121.8 13 123 10 L 125 9.5 L 119.5 6 L 119.5 8 L 117.5 7 L 115.5 10 L 117.5 9 L 117 10.5 L 117 12 L 113 12 L 113 13.5 L 110.5 17 Q 104.3 18.8 102.5 16 L 98.5 17 L 98.5 16 L 101 15.5 L 100.5 14 Q 102.8 14.8 102 12.5 L 100.5 13 L 96 10.5 L 97.5 8 L 100 8.5 L 97 9.5 L 99.5 11 L 104 10 L 104.5 7 Q 105.8 9.2 110.5 8 L 112.5 8 L 114 7.5 L 111 5.5 L 116.5 4 Z M 115 6 L 115 7 L 117 7 L 115 6 Z M 106 9 L 104 12 L 104 14 L 103 14 L 104 16 L 107 14 Q 111 15 110 13 L 106 9 Z " /><path fill="rgb(254,7,6)" stroke="rgb(254,7,6)" stroke-width="1" opacity="1" d="M 33 5 Q 36 4 35 7 Q 32 8 33 5 Z " /><path fill="rgb(254,7,6)" stroke="rgb(254,7,6)" stroke-width="1" opacity="1" d="M 56.5 5 L 57 8 L 53 7.5 L 56 7 L 56.5 5 Z " /><path fill="rgb(254,7,6)" stroke="rgb(254,7,6)" stroke-width="1" opacity="1" d="M 26 6 L 28.5 7 L 30 6.5 Q 31.5 10.9 28.5 10 L 24.5 12 L 23.5 10 L 25.5 11 L 29 8.5 L 26.5 8 L 24.5 9 L 24.5 8 Q 27.1 8.7 26 6 Z " /><path fill="rgb(254,7,6)" stroke="rgb(254,7,6)" stroke-width="1" opacity="1" d="M 31.5 6 L 32 8 Q 37.2 6.3 36 10 L 32.5 9 L 31 9.5 L 31 7.5 L 31.5 6 Z " /><path fill="rgb(254,7,6)" stroke="rgb(254,7,6)" stroke-width="1" opacity="1" d="M 21 7 L 23 7.5 L 21 8.5 L 21 7 Z " /><path fill="rgb(254,7,6)" stroke="rgb(254,7,6)" stroke-width="1" opacity="1" d="M 62.5 7 L 64.5 10 L 61.5 11 L 62 9.5 L 62.5 7 Z " /><path fill="rgb(254,7,6)" stroke="rgb(254,7,6)" stroke-width="1" opacity="1" d="M 37.5 10 L 40 11.5 L 36 12 Q 37.1 14.7 34.5 14 L 33.5 13 L 29.5 17 L 27 15.5 L 29.5 12 L 31.5 12 Q 36.5 13 37.5 10 Z " /><path fill="rgb(254,7,6)" stroke="rgb(254,7,6)" stroke-width="1" opacity="1" d="M 136 10 L 138.5 10 L 144 14.5 L 143.5 17 L 140.5 16 L 137.5 15 L 134.5 16 L 131.5 17 L 128 15.5 Q 127.3 13.3 129.5 14 L 133.5 14 Q 135.8 14.8 135 12.5 L 136 10 Z M 137 11 L 137 13 L 140 14 L 140 13 L 137 11 Z " /><path fill="rgb(254,7,6)" stroke="rgb(254,7,6)" stroke-width="1" opacity="1" d="M 64.5 11 L 65 12.5 L 63 15.5 L 69.5 16 L 72 15 L 73 17.5 L 68.5 19 L 64.5 18 L 62 15.5 Q 60.5 11.1 63.5 12 L 64.5 11 Z " /><path fill="rgb(254,7,6)" stroke="rgb(254,7,6)" stroke-width="1" opacity="1" d="M 21.5 12 L 24 13 L 22.5 17 L 18.5 16 Q 15.6 17.6 16.5 23 L 14 17.5 L 16 17.5 Q 16.7 14.9 14 16 L 14 13.5 L 16 14.5 L 16.5 16 L 20 14.5 L 19.5 13 L 21 13.5 L 21.5 12 Z " /><path fill="rgb(254,7,6)" stroke="rgb(254,7,6)" stroke-width="1" opacity="1" d="M 38.5 13 L 45 14 Q 46.1 16.7 43.5 16 L 38.5 17 L 37 14.5 L 38.5 13 Z M 39 15 L 39 16 L 43 16 L 39 15 Z " /><path fill="rgb(254,7,6)" stroke="rgb(254,7,6)" stroke-width="1" opacity="1" d="M 117.5 14 L 122.5 15 L 124 15.5 L 116.5 16 L 117.5 14 Z " /><path fill="rgb(254,7,6)" stroke="rgb(254,7,6)" stroke-width="1" opacity="1" d="M 147.5 14 L 152 17 L 153 22 Q 150.3 20.9 151 23.5 L 150 26.5 L 152.5 31 L 153.5 28 L 155 31.5 L 152 33 L 151 29 Q 147.3 30.4 149 24.5 L 149 22.5 L 149 19.5 L 146 15.5 L 147.5 14 Z " /><path fill="rgb(254,7,6)" stroke="rgb(254,7,6)" stroke-width="1" opacity="1" d="M 89.5 15 L 92 15.5 Q 89.9 18.8 89.5 15 Z " /><path fill="rgb(254,7,6)" stroke="rgb(254,7,6)" stroke-width="1" opacity="1" d="M 95.5 16 L 97 19.5 L 94 21 L 93 25.5 Q 95.7 27.3 91.5 29 L 88.5 28 L 85.5 33 L 83 31.5 L 82.5 30 L 80.5 31 L 78 30 Q 76.9 32.7 79.5 32 L 79.5 33 L 75.5 32 L 73.5 33 L 68 32 L 66.5 28 Q 62.3 29.3 64 24.5 L 63 21.5 Q 64.5 18.5 66 21.5 Q 63.9 27.4 68.5 26 L 70 22 L 68 21.5 L 70 20.5 L 71.5 23 L 74 21.5 L 72 28 Q 69 27 70 30 Q 75.6 31 77 26.5 Q 77.7 23.9 75 25 L 75 20.5 L 76 20.5 L 76 24 Q 79 23 78 26 L 80.5 26 L 82.5 25 L 82.5 26 L 81 26.5 L 83 27.5 L 81 28.5 L 86 31 L 86 24.5 L 87.5 24 L 91 21.5 Q 88.8 20.3 91.5 19 L 94 20 L 95.5 16 Z M 88 25 L 87 28 L 88 28 L 88 25 Z " /><path fill="rgb(254,7,6)" stroke="rgb(254,7,6)" stroke-width="1" opacity="1" d="M 143 18 Q 147.1 16.3 146 20.5 L 145 23.5 L 147.5 27 L 146 27.5 L 148 32 L 144.5 33 Q 142.3 32.3 143 28.5 L 143 26.5 L 144 21.5 L 143 18 Z M 145 30 L 145 31 L 147 31 L 145 30 Z " /><path fill="rgb(254,7,6)" stroke="rgb(254,7,6)" stroke-width="1" opacity="1" d="M 10.5 20 L 11.5 22 Q 13.3 19.3 15 23.5 L 14 26 L 17 27.5 L 15 31.5 L 15 33.5 L 16 37.5 L 14 37.5 Q 14.8 41.8 12 42.5 L 12 48 Q 8.5 46.9 10 54.5 Q 11.5 57.5 13 54.5 Q 12.2 46.2 15.5 42 L 17 46.5 L 16 48.5 L 17 50.5 L 15.5 54 L 14 53.5 L 14 59.5 Q 17.3 58.7 16 64 Q 11.4 65.3 10 62.5 L 11 60.5 L 10 58 Q 7 59 8 56 L 4.5 56 Q 1.5 54.5 4.5 53 Q 6.3 56.7 8 53.5 L 6 46.5 L 7 46.5 L 7.5 48 L 10 42 L 6 43 L 5.5 45 L 4 41.5 L 6 41.5 L 5 39.5 L 7 39.5 L 5.5 37 L 4 37.5 L 4.5 36 L 3 35.5 L 6 35 L 8.5 39 Q 11.5 39.9 10 35.5 L 9 35.5 L 8.5 37 L 8 34.5 L 8 32.5 Q 9.1 29.2 6.5 30 L 7 31.5 L 5.5 34 L 6 32.5 Q 6.8 30.3 4.5 31 L 5.5 29 L 12 26.5 L 10 26 L 11 22.5 L 8.5 22 L 7 22.5 Q 6.2 19.9 9.5 21 L 10.5 20 Z M 13 23 Q 10 25 13 26 L 14 24 L 13 23 Z M 13 27 L 11 29 L 12 30 L 15 29 L 16 30 Q 17 26 15 27 L 13 27 Z M 13 30 L 13 32 L 10 33 L 12 40 L 13 35 L 14 37 L 15 31 L 13 30 Z M 9 49 L 8 52 L 9 52 L 9 49 Z " /><path fill="rgb(254,7,6)" stroke="rgb(254,7,6)" stroke-width="1" opacity="1" d="M 83.5 23 L 85 25.5 L 84 25.5 L 83.5 23 Z " /><path fill="rgb(254,7,6)" stroke="rgb(254,7,6)" stroke-width="1" opacity="1" d="M 154.5 23 Q 157.2 24.3 155 25.5 L 156 27.5 L 154 26.5 Q 154.8 24.3 152.5 25 L 152.5 24 L 154.5 23 Z " /><path fill="rgb(254,7,6)" stroke="rgb(254,7,6)" stroke-width="1" opacity="1" d="M 7.5 24 L 7 25.5 L 6.5 28 L 6 25.5 L 7.5 24 Z " /><path fill="rgb(254,7,6)" stroke="rgb(254,7,6)" stroke-width="1" opacity="1" d="M 93 29 L 97 30.5 L 95.5 33 L 93.5 32 L 91.5 33 L 93 30.5 L 93 29 Z " /><path fill="rgb(254,7,6)" stroke="rgb(254,7,6)" stroke-width="1" opacity="1" d="M 157.5 32 Q 159.8 31.3 159 33.5 L 157.5 32 Z " /><path fill="rgb(254,7,6)" stroke="rgb(254,7,6)" stroke-width="1" opacity="1" d="M 152.5 37 L 154.5 40 Q 150.1 41.1 152.5 37 Z " /><path fill="rgb(254,7,6)" stroke="rgb(254,7,6)" stroke-width="1" opacity="1" d="M 1.5 41 L 3 41.5 L 2 44.5 L 2.5 46 L 0 42.5 L 1.5 41 Z " /><path fill="rgb(254,7,6)" stroke="rgb(254,7,6)" stroke-width="1" opacity="1" d="M 160.5 41 Q 163.1 40.2 162 43.5 L 159 47.5 L 158.5 57 Q 155.8 55.8 158 54.5 L 158 52 Q 155 53 156 50 L 153.5 50 L 152 50.5 Q 150.7 45.9 156.5 48 L 159 47 L 161 42.5 L 160.5 41 Z " /><path fill="rgb(254,7,6)" stroke="rgb(254,7,6)" stroke-width="1" opacity="1" d="M 144 48 Q 147 47 146 50 Q 143 51 144 48 Z " /><path fill="rgb(254,7,6)" stroke="rgb(254,7,6)" stroke-width="1" opacity="1" d="M 150 54 L 154 54 L 154 55.5 L 153.5 57 L 156 57.5 L 153 58 Q 151.9 60.7 154.5 60 L 158.5 58 L 158.5 59 L 157 59.5 Q 159.3 60.8 156.5 62 L 156.5 60 L 153.5 61 L 152 58 Q 148.3 59.2 150 54 Z " /><path fill="rgb(254,7,6)" stroke="rgb(254,7,6)" stroke-width="1" opacity="1" d="M 144 58 L 146 58 L 146 60 L 148 60 Q 146.9 62.7 149.5 62 L 149.5 63 L 144.5 64 L 143 61.5 L 144 58 Z " /><path fill="rgb(254,7,6)" stroke="rgb(254,7,6)" stroke-width="1" opacity="1" d="M 4.5 59 L 8 61 L 7 65.5 L 8 67.5 L 5 65.5 L 6 63 Q 3.3 64.1 4 61.5 Q 1.7 60.3 4.5 59 Z " /><path fill="rgb(254,7,6)" stroke="rgb(254,7,6)" stroke-width="1" opacity="1" d="M 152.5 64 L 153 65.5 L 151 69.5 L 152 71.5 L 151.5 74 L 150.5 73 L 148 74.5 L 148 72.5 L 148.5 70 L 149.5 73 Q 152.3 71.8 150 70.5 L 152.5 64 Z " /><path fill="rgb(254,7,6)" stroke="rgb(254,7,6)" stroke-width="1" opacity="1" d="M 143 66 Q 148.3 64.2 146 71.5 Q 143.5 73 147 74.5 L 146.5 76 L 146 74 Q 142.5 72.9 144 80.5 L 145 80.5 L 146.5 77 Q 149.3 76.4 148 82.5 L 145 84.5 L 146 86.5 L 144 87.5 L 143.5 86 L 143 88 Q 139.2 86.5 140 89.5 Q 142.3 90.8 139.5 92 L 136.5 91 L 134 92 L 136 96 Q 133.3 97.1 134 94.5 L 132 91.5 L 138 87.5 L 135 87 L 134.5 89 Q 131.5 87.5 134.5 86 L 142 84 L 142.5 86 L 144 82 L 136.5 80 L 136 82.5 L 136 84 L 132 84 Q 133 87 130 86 L 130 90 L 128.5 90 L 129 91.5 L 130.5 94 Q 133.1 93.3 132 96 L 129 96 Q 130.3 99 126.5 98 L 123.5 102 Q 120.9 101.2 122 104.5 L 120 104.5 L 119.5 107 L 118.5 105 L 115.5 106 L 113.5 102 Q 109.8 103.3 111 99.5 L 113 98.5 L 112.5 100 Q 115.8 101.1 115 98.5 L 114.5 97 L 116 97 L 116 102 L 121 102 L 121.5 99 L 122 101 Q 124.7 102.1 124 99.5 L 123.5 98 Q 127.3 99.3 126 95.5 L 128 92.5 L 127 88.5 L 129.5 84 Q 133.7 85.3 132 80.5 Q 133.3 77.8 134.5 80 L 139.5 79 L 141.5 80 L 143 78.5 L 143 66 Z M 147 80 L 145 82 Q 144 84 147 83 L 147 80 Z " /><path fill="rgb(254,7,6)" stroke="rgb(254,7,6)" stroke-width="1" opacity="1" d="M 9.5 67 L 12 73.5 L 11 73.5 L 9.5 71 Q 7.3 71.8 8 69.5 L 9.5 67 Z " /><path fill="rgb(254,7,6)" stroke="rgb(254,7,6)" stroke-width="1" opacity="1" d="M 14.5 67 Q 17.8 69 17 74 L 14 75.5 L 15 78.5 L 13.5 79 Q 10.8 77.8 13 76.5 L 16 72.5 L 14 72 L 14.5 67 Z " /><path fill="rgb(254,7,6)" stroke="rgb(254,7,6)" stroke-width="1" opacity="1" d="M 20.5 79 L 24 80.5 L 26.5 85 L 28 84.5 Q 27.5 88.5 30.5 89 Q 32.8 88.3 32 90.5 L 33 94.5 Q 31.5 97.5 30 94.5 Q 30.7 91.5 27 93 L 28 96.5 L 26 95.5 L 25 92.5 L 27 88 L 23.5 87 Q 19.8 89 21.5 91 L 19 90 Q 17.5 86.3 20.5 87 Q 21.8 89.3 23 86.5 Q 23.6 81.4 20.5 80 L 18.5 84 L 15 82.5 L 16.5 82 Q 17.8 84.3 19 81.5 L 20.5 79 Z M 28 89 Q 26 93 30 92 L 32 94 L 30 91 Q 31 88 28 89 Z " /><path fill="rgb(254,7,6)" stroke="rgb(254,7,6)" stroke-width="1" opacity="1" d="M 26.5 79 L 28.5 80 L 33 79 Q 34 82.8 31.5 84 L 28 81.5 Q 28.8 79.3 26.5 80 L 26.5 79 Z " /><path fill="rgb(254,7,6)" stroke="rgb(254,7,6)" stroke-width="1" opacity="1" d="M 16.5 85 L 19 85.5 Q 16.9 88.8 16.5 85 Z " /><path fill="rgb(254,7,6)" stroke="rgb(254,7,6)" stroke-width="1" opacity="1" d="M 42 95 L 48 96.5 L 46 97 L 44 100.5 L 48 102 L 48.5 100 L 49 101.5 L 49 103.5 L 48.5 110 Q 48.4 104.1 44.5 102 L 37 96.5 L 39.5 96 L 42 97 L 42 95 Z " /><path fill="rgb(254,7,6)" stroke="rgb(254,7,6)" stroke-width="1" opacity="1" d="M 114.5 95 Q 119 94 120 96.5 Q 120.8 98.8 118.5 98 L 118.5 96 Q 113.5 97 114.5 95 Z " /><path fill="rgb(254,7,6)" stroke="rgb(254,7,6)" stroke-width="1" opacity="1" d="M 33.5 96 L 34 98 L 37 98.5 L 35.5 102 L 31.5 99 L 32 100.5 L 31.5 102 L 30 99.5 L 33 98 L 33.5 96 Z " /><path fill="rgb(254,7,6)" stroke="rgb(254,7,6)" stroke-width="1" opacity="1" d="M 130.5 97 L 134 98.5 L 131.5 99 L 130.5 97 Z " /><path fill="rgb(254,7,6)" stroke="rgb(254,7,6)" stroke-width="1" opacity="1" d="M 125 102 Q 128.8 100.5 128 103.5 L 125 103.5 L 125 102 Z " /><path fill="rgb(254,7,6)" stroke="rgb(254,7,6)" stroke-width="1" opacity="1" d="M 40 106 L 42 106.5 L 40.5 110 L 40 106 Z " /><path fill="rgb(254,7,6)" stroke="rgb(254,7,6)" stroke-width="1" opacity="1" d="M 112.5 106 L 114 106.5 L 112 107 L 111.5 110 L 111 107.5 L 112.5 106 Z " /><path fill="rgb(254,7,6)" stroke="rgb(254,7,6)" stroke-width="1" opacity="1" d="M 121.5 108 L 118.5 112 L 116.5 111 L 113.5 116 L 113 113.5 L 114 111 L 117.5 110 L 118.5 111 L 121.5 108 Z " /><path fill="rgb(254,7,6)" stroke="rgb(254,7,6)" stroke-width="1" opacity="1" d="M 44.5 109 Q 46.8 108.3 46 110.5 L 47.5 113 L 48 111 Q 51 110 50 113 Q 47.3 111.9 48 114.5 L 47 114.5 L 44.5 110 L 43 110.5 L 44.5 109 Z " /><path fill="rgb(254,7,6)" stroke="rgb(254,7,6)" stroke-width="1" opacity="1" d="M 62.5 111 L 65 112.5 L 65 119.5 L 63.5 120 L 61 119.5 L 60.5 118 L 59 118.5 L 58.5 117 L 56.5 118 L 55.5 116 L 57 115.5 L 55 112.5 L 56 112.5 Q 55.3 114.8 57.5 114 L 60.5 116 Q 63.3 114.8 61 113.5 L 62.5 111 Z " /><path fill="rgb(254,7,6)" stroke="rgb(254,7,6)" stroke-width="1" opacity="1" d="M 96.5 111 L 103 113 L 103.5 115 L 105 114.5 L 108 120.5 L 106 120.5 L 107 122.5 L 105 122.5 Q 105.8 124.8 103.5 124 Q 102 126.5 100.5 123 L 98 124.5 L 100.5 122 L 102.5 122 L 105 120.5 L 104 116 L 102 116.5 L 102.5 118 L 99 116.5 L 102 116 Q 103.3 113 99.5 114 L 97.5 114 L 95 112.5 L 96.5 111 Z " /><path fill="rgb(254,7,6)" stroke="rgb(254,7,6)" stroke-width="1" opacity="1" d="M 106.5 111 Q 111 110 112 112.5 Q 112.8 114.8 110.5 114 L 112 116.5 L 111.5 118 L 110 115 L 106 115 Q 107.1 112.3 104.5 113 L 104.5 112 L 106.5 111 Z M 108 112 Q 107 115 110 114 Q 111 111 108 112 Z " /><path fill="rgb(254,7,6)" stroke="rgb(254,7,6)" stroke-width="1" opacity="1" d="M 53.5 112 L 52 114.5 L 53 115.5 L 54 117.5 L 52.5 118 L 49.5 114 L 53.5 112 Z " /><path fill="rgb(254,7,6)" stroke="rgb(254,7,6)" stroke-width="1" opacity="1" d="M 95.5 117 L 99 118 L 100 120.5 L 98 121 Q 99 118 96 119 L 95.5 125 L 95.5 117 Z " /><path fill="rgb(254,7,6)" stroke="rgb(254,7,6)" stroke-width="1" opacity="1" d="M 55.5 119 L 60 120.5 L 57 122.5 L 57.5 124 L 54 121.5 L 57 120.5 L 55.5 119 Z " /><path fill="rgb(254,7,6)" stroke="rgb(254,7,6)" stroke-width="1" opacity="1" d="M 62.5 125 L 61.5 127 L 62.5 125 Z " /><path fill="rgb(254,7,6)" stroke="rgb(254,7,6)" stroke-width="1" opacity="1" d="M 65.5 127 L 69 128.5 L 67 128.5 Q 68.1 131.8 65.5 131 L 66 129.5 L 65.5 127 Z " /><path fill="rgb(254,7,6)" stroke="rgb(254,7,6)" stroke-width="1" opacity="1" d="M 76.5 127 Q 82.6 125.8 82 128.5 L 80 128.5 Q 79.3 130.8 81.5 130 L 85 132 L 88.5 127 L 93 128.5 L 92.5 130 L 94 130.5 L 92.5 131 Q 91.3 128.8 90 131.5 L 90.5 133 L 88.5 133 L 86.5 132 L 85 136 L 82.5 135 Q 80.8 138.1 79 136.5 L 78.5 139 L 78 136 Q 75 134.8 76 138.5 L 76.5 140 Q 73.5 140.9 75 136.5 L 74 136.5 Q 74.7 139.1 72 138 Q 70.9 135.3 73.5 136 L 73 134.5 L 70 130.5 L 71.5 131 Q 76.3 132.7 75 128.5 L 76.5 127 Z M 76 128 L 76 131 L 74 135 L 76 135 L 78 135 L 81 134 L 78 130 Q 79 127 76 128 Z M 89 128 Q 90 131 88 130 L 88 131 L 91 130 Q 92 127 89 128 Z " /><path fill="rgb(254,7,6)" stroke="rgb(254,7,6)" stroke-width="1" opacity="1" d="M 94.5 127 L 98 128.5 L 96 129.5 L 96.5 128 Q 93.5 128.5 94.5 127 Z " /><path fill="rgb(254,7,6)" stroke="rgb(254,7,6)" stroke-width="1" opacity="1" d="M 87 136 L 89 136.5 L 86 138.5 L 87 136 Z " /><path fill="rgb(254,7,6)" stroke="rgb(254,7,6)" stroke-width="1" opacity="1" d="M 79.5 141 L 84 141.5 Q 83.5 144.5 79.5 144 L 79.5 141 Z " /><path fill="rgb(251,7,11)" stroke="rgb(251,7,11)" stroke-width="1" opacity="1" d="M 38.5 0 L 41.5 1 L 45.5 0 L 45.5 2 L 49 3.5 L 46.5 4 L 38.5 1 L 38.5 0 Z " /><path fill="rgb(251,7,11)" stroke="rgb(251,7,11)" stroke-width="1" opacity="1" d="M 116 0 L 119 0.5 L 117 1 L 115.5 4 L 112 3.5 L 116 2 L 116 0 Z " /><path fill="rgb(251,7,11)" stroke="rgb(251,7,11)" stroke-width="1" opacity="1" d="M 121.5 0 Q 125.3 -1 124 2 L 126.5 2 L 131 3.5 L 125.5 4 L 123 3 Q 124.1 0.3 121.5 1 L 121.5 0 Z " /><path fill="rgb(251,7,11)" stroke="rgb(251,7,11)" stroke-width="1" opacity="1" d="M 34.5 2 L 39 2.5 L 31.5 5 L 31.5 4 L 34.5 2 Z " /><path fill="rgb(251,7,11)" stroke="rgb(251,7,11)" stroke-width="1" opacity="1" d="M 29.5 3 L 30 5 L 27 4.5 L 29.5 3 Z " /><path fill="rgb(251,7,11)" stroke="rgb(251,7,11)" stroke-width="1" opacity="1" d="M 106.5 3 L 108 3.5 L 104.5 5 L 104.5 4 L 106.5 3 Z " /><path fill="rgb(251,7,11)" stroke="rgb(251,7,11)" stroke-width="1" opacity="1" d="M 23.5 5 L 22.5 7 L 23.5 5 Z " /><path fill="rgb(251,7,11)" stroke="rgb(251,7,11)" stroke-width="1" opacity="1" d="M 58 5 Q 61.3 3.7 60 8.5 L 58.5 10 L 52.5 11 L 52.5 10 L 58 6.5 L 58 5 Z " /><path fill="rgb(251,7,11)" stroke="rgb(251,7,11)" stroke-width="1" opacity="1" d="M 102.5 5 L 101.5 7 L 102.5 5 Z " /><path fill="rgb(251,7,11)" stroke="rgb(251,7,11)" stroke-width="1" opacity="1" d="M 48.5 6 L 51.5 7 L 53 7.5 L 48 9 L 48.5 6 Z " /><path fill="rgb(251,7,11)" stroke="rgb(251,7,11)" stroke-width="1" opacity="1" d="M 105.5 6 L 108.5 7 L 110.5 6 L 110.5 7 L 107.5 8 L 105.5 6 Z " /><path fill="rgb(251,7,11)" stroke="rgb(251,7,11)" stroke-width="1" opacity="1" d="M 139.5 6 Q 142.3 7.2 140 8.5 L 140 10 L 136 10 L 136 11.5 L 134.5 13 L 128 14 Q 126.9 11.3 129.5 12 L 140 7.5 L 139.5 6 Z " /><path fill="rgb(251,7,11)" stroke="rgb(251,7,11)" stroke-width="1" opacity="1" d="M 20.5 7 L 21 8.5 Q 17 10.5 21 12.5 L 20.5 14 L 16.5 12 L 15.5 13 L 13.5 14 L 17.5 9 L 20.5 7 Z " /><path fill="rgb(251,7,11)" stroke="rgb(251,7,11)" stroke-width="1" opacity="1" d="M 22 8 L 27 9.5 L 24.5 10 L 22 9.5 L 22 8 Z " /><path fill="rgb(251,7,11)" stroke="rgb(251,7,11)" stroke-width="1" opacity="1" d="M 41.5 9 L 46 11.5 L 40.5 12 L 38 10.5 L 41.5 9 Z " /><path fill="rgb(251,7,11)" stroke="rgb(251,7,11)" stroke-width="1" opacity="1" d="M 118.5 9 Q 122.3 8.3 123 10.5 L 122.5 12 L 117 12 L 118.5 9 Z " /><path fill="rgb(251,7,11)" stroke="rgb(251,7,11)" stroke-width="1" opacity="1" d="M 144.5 9 L 147.5 13 L 144.5 9 Z " /><path fill="rgb(251,7,11)" stroke="rgb(251,7,11)" stroke-width="1" opacity="1" d="M 65 10 Q 68.8 9.3 70 12.5 L 67 12.5 L 67.5 11 Q 64.9 10.2 66 13.5 L 67.5 16 L 63 15.5 Q 66 14.3 65 10 Z " /><path fill="rgb(251,7,11)" stroke="rgb(251,7,11)" stroke-width="1" opacity="1" d="M 26.5 11 Q 29.1 10.2 28 13.5 L 29 15.5 L 28 15.5 L 28 14 L 24 14 L 24 12 L 26.5 11 Z " /><path fill="rgb(251,7,11)" stroke="rgb(251,7,11)" stroke-width="1" opacity="1" d="M 93.5 11 L 94.5 13 L 93 12.5 Q 93.8 14.8 91.5 14 L 90 14.5 L 93.5 11 Z " /><path fill="rgb(251,7,11)" stroke="rgb(251,7,11)" stroke-width="1" opacity="1" d="M 104.5 11 Q 110.8 9.1 109 14 Q 104.4 15.3 103 12.5 L 104.5 11 Z " /><path fill="rgb(251,7,11)" stroke="rgb(251,7,11)" stroke-width="1" opacity="1" d="M 145.5 13 L 146 14.5 L 144.5 18 L 144 14.5 L 145.5 13 Z " /><path fill="rgb(251,7,11)" stroke="rgb(251,7,11)" stroke-width="1" opacity="1" d="M 54.5 14 Q 58.3 13 57 16 L 52 15.5 L 54.5 14 Z " /><path fill="rgb(251,7,11)" stroke="rgb(251,7,11)" stroke-width="1" opacity="1" d="M 95.5 14 Q 100 13 101 15.5 L 94.5 16 L 95.5 14 Z " /><path fill="rgb(251,7,11)" stroke="rgb(251,7,11)" stroke-width="1" opacity="1" d="M 149.5 14 Q 153.8 15.3 153 20 Q 155.7 18.9 155 21.5 L 155.5 23 L 153.5 22 L 152 22.5 L 153 20.5 L 152 17 L 149.5 18 L 150 16.5 L 149.5 14 Z " /><path fill="rgb(251,7,11)" stroke="rgb(251,7,11)" stroke-width="1" opacity="1" d="M 11.5 15 L 13 15.5 L 12 18 L 14 18.5 L 12.5 19 L 11.5 18 L 8.5 21 L 7 20.5 L 10 19 L 11.5 15 Z " /><path fill="rgb(251,7,11)" stroke="rgb(251,7,11)" stroke-width="1" opacity="1" d="M 72.5 15 L 80 24.5 L 76 21.5 Q 76.8 19.3 74.5 20 L 73.5 17 Q 70.7 17.7 72.5 15 Z " /><path fill="rgb(251,7,11)" stroke="rgb(251,7,11)" stroke-width="1" opacity="1" d="M 91.5 16 L 94 17.5 L 90 20.5 Q 91.1 23.8 88.5 23 Q 84.2 21.3 87 19.5 L 87.5 18 L 90 19 L 91.5 16 Z " /><path fill="rgb(251,7,11)" stroke="rgb(251,7,11)" stroke-width="1" opacity="1" d="M 84.5 21 L 83.5 23 L 84.5 21 Z " /><path fill="rgb(251,7,11)" stroke="rgb(251,7,11)" stroke-width="1" opacity="1" d="M 95.5 22 L 96 26.5 L 91.5 32 Q 87.8 33 89 30 L 94 26.5 Q 93.3 22.8 95.5 22 Z " /><path fill="rgb(251,7,11)" stroke="rgb(251,7,11)" stroke-width="1" opacity="1" d="M 146.5 22 L 148 25.5 L 146 24.5 L 146.5 22 Z " /><path fill="rgb(251,7,11)" stroke="rgb(251,7,11)" stroke-width="1" opacity="1" d="M 12.5 24 L 13 25.5 L 9.5 28 L 9 25.5 L 10.5 26 Q 13 26.7 12.5 24 Z " /><path fill="rgb(251,7,11)" stroke="rgb(251,7,11)" stroke-width="1" opacity="1" d="M 82.5 24 Q 84.8 23.3 84 25.5 Q 87 26.8 86 31 Q 83.3 32.1 84 29.5 L 82 26.5 L 82.5 24 Z " /><path fill="rgb(251,7,11)" stroke="rgb(251,7,11)" stroke-width="1" opacity="1" d="M 4.5 27 L 5 30 Q 2.3 31.1 3 28.5 L 4.5 27 Z " /><path fill="rgb(251,7,11)" stroke="rgb(251,7,11)" stroke-width="1" opacity="1" d="M 14 27 Q 17 25.8 16 29.5 L 14 28.5 L 14 27 Z " /><path fill="rgb(251,7,11)" stroke="rgb(251,7,11)" stroke-width="1" opacity="1" d="M 157.5 27 Q 160.3 28.3 158 29.5 L 156.5 32 Q 154.3 32.8 155 30.5 L 157.5 27 Z " /><path fill="rgb(251,7,11)" stroke="rgb(251,7,11)" stroke-width="1" opacity="1" d="M 11.5 31 L 12 39.5 L 11 39.5 L 10 32.5 L 11.5 31 Z " /><path fill="rgb(251,7,11)" stroke="rgb(251,7,11)" stroke-width="1" opacity="1" d="M 3.5 32 L 4 34.5 L 3 37.5 Q 3.8 39.8 1.5 39 L 0.5 42 L 0 38 Q 3 39.3 2 35.5 L 3.5 32 Z " /><path fill="rgb(251,7,11)" stroke="rgb(251,7,11)" stroke-width="1" opacity="1" d="M 159.5 34 L 160 38 Q 163 36.8 162 40.5 L 161 40.5 Q 161.7 37.9 159 39 L 159.5 34 Z " /><path fill="rgb(251,7,11)" stroke="rgb(251,7,11)" stroke-width="1" opacity="1" d="M 0.5 43 L 3 50.5 L 2 50.5 L 2 48 L 0 47.5 L 0.5 43 Z " /><path fill="rgb(251,7,11)" stroke="rgb(251,7,11)" stroke-width="1" opacity="1" d="M 161.5 44 L 162 47.5 Q 158.7 49.2 159.5 55 L 159 47 Q 162.1 48.1 161.5 44 Z " /><path fill="rgb(251,7,11)" stroke="rgb(251,7,11)" stroke-width="1" opacity="1" d="M 4.5 45 L 6 45.5 L 6 53.5 L 4 52.5 Q 2.8 47.7 5 46.5 L 4.5 45 Z " /><path fill="rgb(251,7,11)" stroke="rgb(251,7,11)" stroke-width="1" opacity="1" d="M 11 48 Q 14.5 46.9 13 54.5 Q 11.5 57.5 10 54.5 L 11 48 Z " /><path fill="rgb(251,7,11)" stroke="rgb(251,7,11)" stroke-width="1" opacity="1" d="M 2.5 52 L 3 54.5 L 2 54.5 L 2.5 52 Z " /><path fill="rgb(251,7,11)" stroke="rgb(251,7,11)" stroke-width="1" opacity="1" d="M 7.5 56 L 7 57.5 L 6.5 60 L 6 57.5 L 7.5 56 Z " /><path fill="rgb(251,7,11)" stroke="rgb(251,7,11)" stroke-width="1" opacity="1" d="M 3.5 58 L 5 60.5 L 2 62.5 Q 5.5 61 3 59.5 L 3.5 58 Z " /><path fill="rgb(251,7,11)" stroke="rgb(251,7,11)" stroke-width="1" opacity="1" d="M 158.5 59 L 159 60.5 L 157.5 65 L 155 61.5 L 158 60.5 L 158.5 59 Z " /><path fill="rgb(251,7,11)" stroke="rgb(251,7,11)" stroke-width="1" opacity="1" d="M 153.5 63 L 155 66.5 Q 153.3 69.8 151.5 66 L 148 68.5 L 148 70.5 Q 149 74.3 146 73 L 146 68.5 L 149.5 64 L 152 64 Q 150.9 66.7 153.5 66 L 153 64.5 L 153.5 63 Z " /><path fill="rgb(251,7,11)" stroke="rgb(251,7,11)" stroke-width="1" opacity="1" d="M 8 64 Q 10.7 62.9 10 65.5 L 14 70.5 L 14 72.5 L 13.5 75 Q 10.1 75.9 12 70.5 L 10 67 Q 6.7 68.1 8 64 Z " /><path fill="rgb(251,7,11)" stroke="rgb(251,7,11)" stroke-width="1" opacity="1" d="M 156.5 67 L 157 68.5 L 155 69.5 L 156.5 67 Z " /><path fill="rgb(251,7,11)" stroke="rgb(251,7,11)" stroke-width="1" opacity="1" d="M 5.5 68 L 6.5 70 L 5.5 68 Z " /><path fill="rgb(251,7,11)" stroke="rgb(251,7,11)" stroke-width="1" opacity="1" d="M 7.5 71 L 9.5 74 L 7 72.5 L 7.5 71 Z " /><path fill="rgb(251,7,11)" stroke="rgb(251,7,11)" stroke-width="1" opacity="1" d="M 150.5 73 L 154 74.5 L 152 75.5 Q 154.3 76.8 151.5 78 L 150 78.5 Q 152.3 79.8 149.5 81 L 148 78.5 L 150.5 73 Z " /><path fill="rgb(251,7,11)" stroke="rgb(251,7,11)" stroke-width="1" opacity="1" d="M 144 74 Q 147.3 72.7 146 77.5 L 144.5 81 L 144 74 Z " /><path fill="rgb(251,7,11)" stroke="rgb(251,7,11)" stroke-width="1" opacity="1" d="M 10.5 75 L 11.5 77 L 9 76.5 L 10.5 75 Z " /><path fill="rgb(251,7,11)" stroke="rgb(251,7,11)" stroke-width="1" opacity="1" d="M 13.5 79 L 12.5 81 L 11 80.5 L 13.5 79 Z " /><path fill="rgb(251,7,11)" stroke="rgb(251,7,11)" stroke-width="1" opacity="1" d="M 25 80 Q 28.8 78.5 28 81.5 Q 33 83 32 89 Q 29.3 90.1 30 87.5 Q 27.3 86.4 28 83 Q 23.5 84.5 25 80 Z " /><path fill="rgb(251,7,11)" stroke="rgb(251,7,11)" stroke-width="1" opacity="1" d="M 128 80 Q 131 79 130 82 Q 127 83 128 80 Z " /><path fill="rgb(251,7,11)" stroke="rgb(251,7,11)" stroke-width="1" opacity="1" d="M 19 83 L 22 84.5 L 17.5 88 L 16.5 86 Q 17.8 88.3 19 85.5 L 19 83 Z " /><path fill="rgb(251,7,11)" stroke="rgb(251,7,11)" stroke-width="1" opacity="1" d="M 143.5 87 L 144 88.5 L 141 93 L 134.5 98 L 136 95.5 Q 135.3 92.9 138 94 L 138 92 L 139.5 92 L 141.5 88 L 143 88.5 L 143.5 87 Z " /><path fill="rgb(251,7,11)" stroke="rgb(251,7,11)" stroke-width="1" opacity="1" d="M 23 89 Q 26.3 87.7 25 92.5 L 23.5 95 L 23 92 L 21 91.5 L 23 91 L 23 89 Z " /><path fill="rgb(251,7,11)" stroke="rgb(251,7,11)" stroke-width="1" opacity="1" d="M 128.5 90 Q 130.8 89.3 130 91.5 L 128.5 90 Z " /><path fill="rgb(251,7,11)" stroke="rgb(251,7,11)" stroke-width="1" opacity="1" d="M 27 94 Q 30 93 29 96 L 26.5 97 L 27 95.5 L 27 94 Z " /><path fill="rgb(251,7,11)" stroke="rgb(251,7,11)" stroke-width="1" opacity="1" d="M 30 96 Q 33 95 32 98 Q 29 99 30 96 Z " /><path fill="rgb(251,7,11)" stroke="rgb(251,7,11)" stroke-width="1" opacity="1" d="M 112 96 L 115 96.5 L 112 98 L 112 96 Z " /><path fill="rgb(251,7,11)" stroke="rgb(251,7,11)" stroke-width="1" opacity="1" d="M 121 96 Q 124.7 94.5 124 97.5 Q 122.5 100.5 121 97.5 L 121 96 Z " /><path fill="rgb(251,7,11)" stroke="rgb(251,7,11)" stroke-width="1" opacity="1" d="M 130.5 96 L 132 96.5 L 129 98.5 L 129.5 100 Q 130.8 97.8 132 100.5 Q 131 103 126.5 102 L 125 99 Q 129.2 99.7 130.5 96 Z " /><path fill="rgb(251,7,11)" stroke="rgb(251,7,11)" stroke-width="1" opacity="1" d="M 28.5 97 L 31 100.5 L 28 98.5 L 28.5 97 Z " /><path fill="rgb(251,7,11)" stroke="rgb(251,7,11)" stroke-width="1" opacity="1" d="M 46.5 98 L 48 98 L 48 102 Q 45.3 103.1 46 100.5 Q 43.8 99.3 46.5 98 Z " /><path fill="rgb(251,7,11)" stroke="rgb(251,7,11)" stroke-width="1" opacity="1" d="M 116 98 L 120 99.5 Q 121.1 102.8 118.5 102 L 116 101 L 116 98 Z " /><path fill="rgb(251,7,11)" stroke="rgb(251,7,11)" stroke-width="1" opacity="1" d="M 42.5 101 L 45 102 Q 46.7 106.1 42.5 105 Q 41.3 107.3 40 104.5 L 39 102.5 L 42.5 101 Z " /><path fill="rgb(251,7,11)" stroke="rgb(251,7,11)" stroke-width="1" opacity="1" d="M 32.5 102 L 36 103 L 37 105.5 L 35.5 106 L 32.5 102 Z " /><path fill="rgb(251,7,11)" stroke="rgb(251,7,11)" stroke-width="1" opacity="1" d="M 128.5 103 L 125.5 107 L 119.5 112 L 119.5 110 Q 115 111 114 108.5 L 114.5 105 L 120 108 L 120.5 110 Q 125.3 107.5 123.5 105 L 125.5 104 Q 127 106.5 128.5 103 Z " /><path fill="rgb(251,7,11)" stroke="rgb(251,7,11)" stroke-width="1" opacity="1" d="M 43.5 106 L 46 107.5 L 46.5 106 L 48 109.5 L 46.5 109 L 43 108 L 43.5 106 Z " /><path fill="rgb(251,7,11)" stroke="rgb(251,7,11)" stroke-width="1" opacity="1" d="M 42.5 111 L 46 113.5 L 45.5 115 L 44 112 L 42.5 111 Z " /><path fill="rgb(251,7,11)" stroke="rgb(251,7,11)" stroke-width="1" opacity="1" d="M 52.5 114 L 50.5 118 L 52 118.5 L 50.5 119 L 47.5 115 L 50.5 116 L 52.5 114 Z " /><path fill="rgb(251,7,11)" stroke="rgb(251,7,11)" stroke-width="1" opacity="1" d="M 115.5 114 L 113.5 117 L 115.5 114 Z " /><path fill="rgb(251,7,11)" stroke="rgb(251,7,11)" stroke-width="1" opacity="1" d="M 96 115 Q 99.7 113.5 99 116.5 L 96 118 L 96 115 Z " /><path fill="rgb(251,7,11)" stroke="rgb(251,7,11)" stroke-width="1" opacity="1" d="M 103.5 118 L 104 119.5 L 98 123.5 L 96.5 126 L 96 123 L 103 120 L 103.5 118 Z " /><path fill="rgb(251,7,11)" stroke="rgb(251,7,11)" stroke-width="1" opacity="1" d="M 111.5 118 L 110.5 120 L 107.5 122 L 108 120.5 Q 107.2 117.9 110.5 119 L 111.5 118 Z " /><path fill="rgb(251,7,11)" stroke="rgb(251,7,11)" stroke-width="1" opacity="1" d="M 62.5 121 L 63 122.5 L 62 123.5 L 63.5 126 L 61 124.5 Q 61.8 126.8 59.5 126 L 55 122.5 L 57.5 124 L 62.5 121 Z " /><path fill="rgb(251,7,11)" stroke="rgb(251,7,11)" stroke-width="1" opacity="1" d="M 100.5 123 L 99.5 125 L 100.5 123 Z " /><path fill="rgb(251,7,11)" stroke="rgb(251,7,11)" stroke-width="1" opacity="1" d="M 105.5 123 L 104.5 125 L 96.5 132 L 103.5 124 L 105.5 123 Z " /><path fill="rgb(251,7,11)" stroke="rgb(251,7,11)" stroke-width="1" opacity="1" d="M 61.5 127 L 64 127.5 L 65.5 131 Q 67.4 127.4 73.5 128 L 72.5 130 Q 69.2 128.9 70 131.5 L 69.5 134 Q 62.8 132.5 61.5 127 Z " /><path fill="rgb(251,7,11)" stroke="rgb(251,7,11)" stroke-width="1" opacity="1" d="M 94.5 128 L 95.5 130 L 93 129.5 L 94.5 128 Z " /><path fill="rgb(251,7,11)" stroke="rgb(251,7,11)" stroke-width="1" opacity="1" d="M 89.5 130 L 93 131.5 L 92 133.5 L 95 132.5 Q 93 137 91 133.5 L 89.5 130 Z " /><path fill="rgb(251,7,11)" stroke="rgb(251,7,11)" stroke-width="1" opacity="1" d="M 86.5 132 Q 91.5 134.5 86.5 137 Q 83.5 137.9 85 133.5 L 86.5 132 Z " /><path fill="rgb(251,7,11)" stroke="rgb(251,7,11)" stroke-width="1" opacity="1" d="M 78 133 Q 81 132 80 135 Q 77 136 78 133 Z " /><path fill="rgb(251,7,11)" stroke="rgb(251,7,11)" stroke-width="1" opacity="1" d="M 79.5 138 L 80.5 140 L 81 138 L 86 138.5 L 84 139 L 84.5 141 L 87.5 139 L 86.5 141 Q 84.3 140.3 85 142.5 L 82 144.5 L 81 142.5 L 82.5 143 Q 85.1 143.7 84 141 L 81.5 140 L 79 140.5 L 78 142.5 L 81 144.5 L 79.5 145 L 77 142.5 L 77.5 140 Q 80 140.7 79.5 138 Z " /><path fill="rgb(255,7,7)" stroke="rgb(255,7,7)" stroke-width="1" opacity="1" d="M 119 0 Q 122 -1 121 2 Q 118 3 119 0 Z " /><path fill="rgb(255,7,7)" stroke="rgb(255,7,7)" stroke-width="1" opacity="1" d="M 39.5 2 L 38.5 4 Q 36.3 3.3 37 5.5 L 35.5 5 L 31 6 L 30.5 8 L 29 5.5 L 32 3.5 L 31.5 5 L 39.5 2 Z " /><path fill="rgb(255,7,7)" stroke="rgb(255,7,7)" stroke-width="1" opacity="1" d="M 111.5 3 L 115.5 4 L 117.5 3 L 117.5 4 L 112.5 5 L 111.5 3 Z " /><path fill="rgb(255,7,7)" stroke="rgb(255,7,7)" stroke-width="1" opacity="1" d="M 120.5 3 L 128 4.5 Q 126.3 6.8 121.5 6 L 121.5 5 L 125 4.5 L 120.5 4 L 120.5 3 Z " /><path fill="rgb(255,7,7)" stroke="rgb(255,7,7)" stroke-width="1" opacity="1" d="M 107.5 4 L 110 4.5 Q 107.9 7.8 107.5 4 Z " /><path fill="rgb(255,7,7)" stroke="rgb(255,7,7)" stroke-width="1" opacity="1" d="M 130 4 L 135 5.5 Q 129.9 5.9 128.5 10 L 128 8.5 Q 130.7 7.4 130 4 Z " /><path fill="rgb(255,7,7)" stroke="rgb(255,7,7)" stroke-width="1" opacity="1" d="M 40 6 L 45 7 Q 44 10 47 9 L 47.5 6 L 48 8.5 Q 47 11 42.5 10 L 40.5 10 Q 36.8 9.3 36 11.5 L 51 12 Q 49.9 14.7 52.5 14 L 53.5 17 Q 59.4 19.1 58 14.5 L 57.5 13 L 62 14 L 64.5 18 L 68.5 17 L 68 18.5 L 68 22 Q 71 20.8 70 24.5 L 66 26 Q 67.3 21.4 64.5 20 L 63 23.5 L 64 28 L 68 29.5 Q 66.7 34.1 72.5 32 L 74.5 33 L 76.5 32 L 80 33 Q 78.9 30.3 81.5 31 L 82.5 28 Q 85.3 29.3 83 30.5 L 84.5 33 L 87 31.5 Q 85.7 27.3 90.5 29 L 90.5 30 Q 87.9 29.3 89 32 L 92.5 33 L 94.5 33 L 97 31.5 L 95.5 29 L 94 28.5 Q 97 27.5 96 22.5 L 94 22.5 Q 93.3 20.3 95.5 21 L 97 17.5 L 96.5 16 L 101.5 17 L 103.5 17 Q 110.3 18.7 112 15.5 L 113 12 L 125.5 12 L 126.5 11 L 128.5 11 L 130 11.5 L 128 12 Q 127 15.8 129.5 17 L 132.5 16 L 135.5 15 L 138.5 16 L 141.5 17 Q 142.8 14.7 144 17.5 L 143 20.5 L 144 24.5 L 143 26.5 L 143 28.5 Q 142.3 32.3 144.5 33 L 148 32 L 146 27.5 L 148 27 Q 149 23.2 146.5 22 L 145.5 24 L 145 21.5 L 146 18.5 L 145.5 17 L 149 19.5 L 149 28.5 L 151 29 L 151 30.5 L 152 33 L 156.5 32 Q 160.5 33.7 159 40 L 161 40.5 L 161 42.5 L 159 47 L 152 48 L 152.5 51 L 156 50 Q 155 53 158 52 L 158 54.5 L 156.5 57 L 158 57.5 L 156 58.5 Q 156.7 55.9 154 57 L 154 54 L 150 54 L 150 58 Q 152.7 56.9 152 59.5 L 153 59.5 L 153.5 58 L 155.5 61 L 153 60 L 154 62.5 L 148.5 64 L 148.5 63 L 150 62.5 L 148 62 L 148 60 L 144 58 L 143 62.5 L 146 64 Q 144.9 66.7 147.5 66 L 146.5 68 L 146 66 L 143 66.5 L 143 78.5 L 140.5 80 L 136.5 79 L 134.5 80 Q 133.3 77.8 132 80.5 Q 130.4 86.2 136 84 Q 134.7 80.7 139.5 82 L 141.5 82 Q 144.8 80.9 144 83.5 L 143 85.5 L 143.5 87 L 142 84 L 138 85.5 L 140 86.5 L 138.5 87 L 134.5 86 Q 131.8 87.3 134 88.5 Q 135 92.3 132 91 L 132 94 Q 135 92.8 134 96.5 L 132 97.5 Q 133.5 93.1 130.5 94 Q 127.7 92.8 130 91.5 L 130 86.5 Q 132.8 87.1 132 84 L 128 85.5 L 127 91.5 L 128 93.5 Q 125.3 94.6 126 98 L 128 98.5 L 126.5 99 L 124 98 Q 125.1 94.7 121 96 L 122 98.5 L 120.5 102 L 119 98.5 L 120 96.5 Q 119 94 114.5 95 L 112 96 L 111 102 L 115 103.5 L 114 106 L 111 107.5 Q 109.7 112.1 115.5 110 L 115.5 111 Q 113.3 110.3 114 112.5 L 112 113.5 L 110.5 111 Q 105.8 110.3 104 112.5 L 106 113 L 106 115 L 110 115 L 110 116.5 L 111 119 L 107.5 120 L 105 114 L 96.5 111 Q 93.5 112.5 96.5 114 L 98 114.5 L 96 115 Q 94.1 117.7 95 124.5 L 96.5 127 L 90.5 129 L 90.5 127 Q 85.5 126.5 85 130.5 Q 85.8 132.8 83.5 132 Q 81 130.8 82 127 Q 76.6 125.5 75 128.5 L 75.5 131 L 78.5 130 L 81 133.5 L 79.5 133 Q 77.3 132.3 78 134.5 L 76 133.5 L 73 129.5 L 73.5 128 L 70.5 127 L 68.5 128 L 65 127 L 64.5 129 L 64 126.5 L 65 124 L 63 123.5 L 64 121.5 L 63.5 120 L 65 119.5 L 65 112.5 L 62.5 111 L 61 113.5 Q 63.3 114.8 60.5 116 L 56.5 114 L 53 114.5 Q 53.8 112.3 51.5 113 Q 50.3 110.3 46 110.5 L 49 110 L 49 103.5 L 48 102.5 L 49 100.5 L 48 98 L 46 97.5 L 48 96.5 L 42 95 Q 43.1 97.7 40.5 97 L 37.5 96 L 41.5 102 L 39 102.5 L 39.5 104 L 36 102.5 L 37 98 Q 33.3 99.5 34 96.5 L 33 96.5 L 32.5 98 L 32 95.5 L 33 91.5 Q 30.7 90.3 32 85.5 L 30 83.5 L 33 82.5 Q 34.8 77.3 29.5 79 L 27.5 79 L 25 80.5 L 24.5 82 L 22.5 79 L 19 80.5 L 17.5 83 L 16 80 L 14 79.5 L 14 77.5 L 15.5 74 Q 18.5 74.9 17 70.5 Q 13.4 68.6 14 64 Q 17.7 65.2 16 60 Q 12.5 61.1 14 53.5 L 16 53.5 L 17 49.5 L 16 47.5 L 17 45.5 L 15.5 42 L 14 48 Q 10 49.4 12 42.5 Q 14.8 41.7 14 37.5 L 12 32 Q 15.7 30.6 14 36.5 L 16 37.5 Q 17.3 31.8 14 30.5 L 17 29.5 L 15.5 26 Q 13.3 26.8 14 24.5 L 14 22.5 L 14.5 21 L 15 23 Q 19 24.4 17 17.5 Q 18.3 14.7 19.5 17 Q 23.3 17.8 24 15.5 Q 23.2 12.5 27 14 L 28.5 17 Q 30.6 13.1 36 14 Q 37.1 10.5 29.5 12 L 28 12.5 L 26 8.5 L 28.5 8 L 28.5 10 L 35.5 10 L 36 7.5 L 37.5 8 Q 41.3 9 40 6 Z M 39 13 L 37 15 L 39 17 L 44 16 Q 46 17 45 14 L 39 13 Z M 49 13 L 47 16 L 50 17 L 51 14 L 49 13 Z M 118 14 L 117 16 L 124 16 L 123 15 L 118 14 Z M 153 37 Q 150 41 155 40 L 153 37 Z M 144 48 Q 143 51 146 50 Q 147 47 144 48 Z M 128 80 Q 127 84 130 83 Q 131 79 128 80 Z M 54 112 L 55 113 L 56 114 Q 57 111 54 112 Z " /><path fill="rgb(255,7,7)" stroke="rgb(255,7,7)" stroke-width="1" opacity="1" d="M 100.5 7 L 104 8 Q 105.3 11.3 100.5 10 Q 99.3 12.3 98 9.5 L 100 9 L 100.5 7 Z " /><path fill="rgb(255,7,7)" stroke="rgb(255,7,7)" stroke-width="1" opacity="1" d="M 117.5 7 L 119.5 8 L 122.5 7 L 124.5 10 L 117.5 9 L 115.5 10 L 117.5 7 Z " /><path fill="rgb(255,7,7)" stroke="rgb(255,7,7)" stroke-width="1" opacity="1" d="M 136.5 7 L 137 8.5 L 135 9.5 L 136.5 7 Z " /><path fill="rgb(255,7,7)" stroke="rgb(255,7,7)" stroke-width="1" opacity="1" d="M 139.5 7 L 141 10 L 144 10.5 L 142 11.5 L 144.5 12 Q 145.8 9.8 147 12.5 Q 145.3 10.9 143.5 14 L 142.5 13 L 139 10.5 L 140 8.5 L 139.5 7 Z " /><path fill="rgb(255,7,7)" stroke="rgb(255,7,7)" stroke-width="1" opacity="1" d="M 52 8 L 55 8.5 L 54.5 10 L 57 10.5 L 54.5 12 L 54 10 Q 51 11 52 8 Z " /><path fill="rgb(255,7,7)" stroke="rgb(255,7,7)" stroke-width="1" opacity="1" d="M 60.5 8 Q 63.1 7.3 62 10 L 64.5 10 L 63.5 12 Q 60.9 12.7 62 10 L 59.5 10 L 60.5 8 Z " /><path fill="rgb(255,7,7)" stroke="rgb(255,7,7)" stroke-width="1" opacity="1" d="M 21.5 9 Q 23 12.5 24.5 10 L 26 10.5 L 24 11 L 23.5 13 L 21.5 9 Z " /><path fill="rgb(255,7,7)" stroke="rgb(255,7,7)" stroke-width="1" opacity="1" d="M 19.5 10 L 20.5 12 L 19.5 10 Z " /><path fill="rgb(255,7,7)" stroke="rgb(255,7,7)" stroke-width="1" opacity="1" d="M 16.5 12 Q 19.5 13.5 16.5 15 L 16.5 12 Z " /><path fill="rgb(255,7,7)" stroke="rgb(255,7,7)" stroke-width="1" opacity="1" d="M 131.5 13 L 130.5 15 L 131.5 13 Z " /><path fill="rgb(255,7,7)" stroke="rgb(255,7,7)" stroke-width="1" opacity="1" d="M 13 16 L 15 16.5 L 13 17.5 L 13 16 Z " /><path fill="rgb(255,7,7)" stroke="rgb(255,7,7)" stroke-width="1" opacity="1" d="M 92 18 Q 95 17 94 20 L 90.5 22 L 92 19.5 L 92 18 Z " /><path fill="rgb(255,7,7)" stroke="rgb(255,7,7)" stroke-width="1" opacity="1" d="M 12.5 19 L 14 19.5 L 11 21.5 L 12.5 19 Z " /><path fill="rgb(255,7,7)" stroke="rgb(255,7,7)" stroke-width="1" opacity="1" d="M 86.5 22 L 87.5 24 L 86.5 22 Z " /><path fill="rgb(255,7,7)" stroke="rgb(255,7,7)" stroke-width="1" opacity="1" d="M 8 24 L 10 24.5 L 8.5 28 L 8 24 Z " /><path fill="rgb(255,7,7)" stroke="rgb(255,7,7)" stroke-width="1" opacity="1" d="M 78.5 24 L 79.5 26 Q 76.7 26.7 78.5 24 Z " /><path fill="rgb(255,7,7)" stroke="rgb(255,7,7)" stroke-width="1" opacity="1" d="M 72 25 L 77 25 L 77 26.5 Q 75.6 31 70 30 Q 69 27 72 28 L 72 25 Z " /><path fill="rgb(255,7,7)" stroke="rgb(255,7,7)" stroke-width="1" opacity="1" d="M 12.5 27 L 13.5 29 L 11.5 30 L 11 28.5 L 12.5 27 Z " /><path fill="rgb(255,7,7)" stroke="rgb(255,7,7)" stroke-width="1" opacity="1" d="M 155.5 28 L 155 29.5 L 154.5 31 L 154 29.5 L 155.5 28 Z " /><path fill="rgb(255,7,7)" stroke="rgb(255,7,7)" stroke-width="1" opacity="1" d="M 6.5 30 Q 8.8 29.3 8 31.5 L 6.5 30 Z " /><path fill="rgb(255,7,7)" stroke="rgb(255,7,7)" stroke-width="1" opacity="1" d="M 3.5 31 Q 6.1 30.2 5 33.5 L 5.5 35 Q 2.9 35.8 4 32.5 L 3.5 31 Z " /><path fill="rgb(255,7,7)" stroke="rgb(255,7,7)" stroke-width="1" opacity="1" d="M 9.5 35 L 10 38.5 L 9 38.5 L 9.5 35 Z " /><path fill="rgb(255,7,7)" stroke="rgb(255,7,7)" stroke-width="1" opacity="1" d="M 4.5 36 L 4 37.5 L 3.5 48 L 2 42.5 L 2 40.5 L 4.5 36 Z " /><path fill="rgb(255,7,7)" stroke="rgb(255,7,7)" stroke-width="1" opacity="1" d="M 8.5 42 Q 11.1 41.2 10 44.5 Q 5.8 47.3 6.5 55 L 6 48.5 L 7 46.5 L 6 43 L 8.5 42 Z " /><path fill="rgb(255,7,7)" stroke="rgb(255,7,7)" stroke-width="1" opacity="1" d="M 10.5 48 L 11 52.5 L 10 52.5 L 10.5 48 Z " /><path fill="rgb(255,7,7)" stroke="rgb(255,7,7)" stroke-width="1" opacity="1" d="M 3.5 55 L 6 56.5 L 3.5 58 L 3.5 55 Z " /><path fill="rgb(255,7,7)" stroke="rgb(255,7,7)" stroke-width="1" opacity="1" d="M 8.5 58 Q 10.8 57.3 10 59.5 L 11 61.5 L 11 63.5 L 12 66.5 L 10 65.5 Q 10.7 62.9 8 64 L 8 61.5 L 7 59.5 L 8.5 58 Z " /><path fill="rgb(255,7,7)" stroke="rgb(255,7,7)" stroke-width="1" opacity="1" d="M 155.5 64 Q 157.8 63.3 157 65.5 L 155.5 64 Z " /><path fill="rgb(255,7,7)" stroke="rgb(255,7,7)" stroke-width="1" opacity="1" d="M 150.5 66 L 149.5 68 L 150.5 66 Z " /><path fill="rgb(255,7,7)" stroke="rgb(255,7,7)" stroke-width="1" opacity="1" d="M 10.5 69 L 12 71.5 Q 10.8 74.3 9.5 72 L 8 71.5 L 10 71 L 10.5 69 Z " /><path fill="rgb(255,7,7)" stroke="rgb(255,7,7)" stroke-width="1" opacity="1" d="M 152.5 69 L 154 71.5 L 152 70.5 L 152.5 69 Z " /><path fill="rgb(255,7,7)" stroke="rgb(255,7,7)" stroke-width="1" opacity="1" d="M 145.5 72 L 148 73.5 L 146.5 74 L 145.5 72 Z " /><path fill="rgb(255,7,7)" stroke="rgb(255,7,7)" stroke-width="1" opacity="1" d="M 148.5 75 L 149 77.5 L 148 77.5 L 148.5 75 Z " /><path fill="rgb(255,7,7)" stroke="rgb(255,7,7)" stroke-width="1" opacity="1" d="M 11.5 77 L 12.5 79 L 11.5 77 Z " /><path fill="rgb(255,7,7)" stroke="rgb(255,7,7)" stroke-width="1" opacity="1" d="M 20.5 82 L 23 83.5 Q 21.5 87.9 24.5 87 L 27.5 93 Q 30.8 91.9 30 94.5 L 30 96.5 L 29.5 98 L 29 94 L 25 91.5 Q 26.1 88.2 23.5 89 L 22 89.5 L 23 87 L 20 86.5 L 22 84.5 L 20.5 82 Z " /><path fill="rgb(255,7,7)" stroke="rgb(255,7,7)" stroke-width="1" opacity="1" d="M 26 83 L 28 83.5 L 26 84.5 L 26 83 Z " /><path fill="rgb(255,7,7)" stroke="rgb(255,7,7)" stroke-width="1" opacity="1" d="M 28.5 86 L 29.5 88 L 28.5 86 Z " /><path fill="rgb(255,7,7)" stroke="rgb(255,7,7)" stroke-width="1" opacity="1" d="M 113.5 98 Q 115.8 97.3 115 99.5 L 113.5 98 Z " /><path fill="rgb(255,7,7)" stroke="rgb(255,7,7)" stroke-width="1" opacity="1" d="M 124.5 101 L 126 101.5 L 125 104 Q 122.3 102.9 123 105.5 L 122 105.5 Q 120.5 101.1 123.5 102 L 124.5 101 Z " /><path fill="rgb(255,7,7)" stroke="rgb(255,7,7)" stroke-width="1" opacity="1" d="M 44 105 L 47 105.5 L 44.5 107 L 44 105 Z " /><path fill="rgb(255,7,7)" stroke="rgb(255,7,7)" stroke-width="1" opacity="1" d="M 117.5 106 L 120 107.5 L 118.5 108 L 117.5 106 Z " /><path fill="rgb(255,7,7)" stroke="rgb(255,7,7)" stroke-width="1" opacity="1" d="M 53.5 116 L 56 117.5 L 54 118.5 L 54.5 117 L 53.5 116 Z " /><path fill="rgb(255,7,7)" stroke="rgb(255,7,7)" stroke-width="1" opacity="1" d="M 58.5 117 L 60.5 120 L 62 120.5 L 60 121 Q 61.1 123.7 58.5 123 L 59.5 120 Q 56.4 120.7 58.5 117 Z " /><path fill="rgb(255,7,7)" stroke="rgb(255,7,7)" stroke-width="1" opacity="1" d="M 98.5 117 L 103 118 L 104 120.5 L 102.5 120 L 100.5 121 L 98.5 117 Z " /><path fill="rgb(255,7,7)" stroke="rgb(255,7,7)" stroke-width="1" opacity="1" d="M 97.5 120 L 97 121.5 L 96.5 123 L 96 121.5 L 97.5 120 Z " /><path fill="rgb(255,7,7)" stroke="rgb(255,7,7)" stroke-width="1" opacity="1" d="M 99.5 122 L 98.5 124 L 99.5 122 Z " /><path fill="rgb(255,7,7)" stroke="rgb(255,7,7)" stroke-width="1" opacity="1" d="M 100.5 124 L 99.5 126 L 98 125.5 L 100.5 124 Z " /><path fill="rgb(255,7,7)" stroke="rgb(255,7,7)" stroke-width="1" opacity="1" d="M 61.5 125 L 62.5 127 L 61.5 125 Z " /><path fill="rgb(255,7,7)" stroke="rgb(255,7,7)" stroke-width="1" opacity="1" d="M 94.5 130 L 97 130.5 L 95.5 132 L 93 131.5 L 94.5 130 Z " /><path fill="rgb(255,7,7)" stroke="rgb(255,7,7)" stroke-width="1" opacity="1" d="M 89.5 132 L 90 134 L 88 133.5 L 89.5 132 Z " /><path fill="rgb(255,7,7)" stroke="rgb(255,7,7)" stroke-width="1" opacity="1" d="M 89.5 135 L 90.5 137 L 89.5 135 Z " /><path fill="rgb(255,7,7)" stroke="rgb(255,7,7)" stroke-width="1" opacity="1" d="M 76 136 L 78 136.5 L 78 138.5 L 77.5 140 L 76 136 Z " /><path fill="rgb(255,7,7)" stroke="rgb(255,7,7)" stroke-width="1" opacity="1" d="M 82.5 136 L 85 136.5 Q 82.9 139.8 82.5 136 Z " /><path fill="rgb(246,149,148)" stroke="rgb(246,149,148)" stroke-width="1" opacity="0.3764705882352941" d="M 32.5 0 L 38 0.5 L 29.5 2 L 29.5 1 L 32.5 0 Z " /><path fill="rgb(246,149,148)" stroke="rgb(246,149,148)" stroke-width="1" opacity="0.3764705882352941" d="M 46.5 0 L 51.5 0 L 63.5 5 L 77 16.5 L 80 22 Q 82.7 23.1 82 20.5 L 92.5 9 L 104.5 2 L 110.5 0 L 115.5 0 L 115.5 1 Q 96.4 3.4 87 15.5 L 82 24 Q 79.3 25.1 80 22.5 L 70.5 11 L 57.5 3 L 46.5 1 L 46.5 0 Z " /><path fill="rgb(246,149,148)" stroke="rgb(246,149,148)" stroke-width="1" opacity="0.3764705882352941" d="M 124.5 0 Q 130.3 -0.8 133 1.5 L 130.5 2 Q 129.3 -0.3 124.5 1 L 124.5 0 Z " /><path fill="rgb(246,149,148)" stroke="rgb(246,149,148)" stroke-width="1" opacity="0.3764705882352941" d="M 25.5 2 L 28 2.5 Q 16 6.5 9 15.5 L 2.5 28 L 2 25.5 Q 6.9 13.9 16.5 7 L 25.5 2 Z " /><path fill="rgb(246,149,148)" stroke="rgb(246,149,148)" stroke-width="1" opacity="0.3764705882352941" d="M 134.5 2 Q 148 6 155 16.5 L 160 27.5 L 159 27.5 Q 155.3 15.7 146.5 9 L 134.5 3 L 134.5 2 Z " /><path fill="rgb(246,149,148)" stroke="rgb(246,149,148)" stroke-width="1" opacity="0.3764705882352941" d="M 1.5 29 L 2 31.5 L 0.5 38 L 0 31.5 L 1.5 29 Z " /><path fill="rgb(246,149,148)" stroke="rgb(246,149,148)" stroke-width="1" opacity="0.3764705882352941" d="M 160.5 29 Q 162.8 31.8 162 37.5 L 161 37.5 L 160.5 29 Z " /><path fill="rgb(246,149,148)" stroke="rgb(246,149,148)" stroke-width="1" opacity="0.3764705882352941" d="M 0.5 48 L 2 60.5 L 1 60.5 Q -1.4 55.6 0.5 48 Z " /><path fill="rgb(246,149,148)" stroke="rgb(246,149,148)" stroke-width="1" opacity="0.3764705882352941" d="M 161.5 48 L 162 57.5 L 160.5 61 L 160 56.5 L 161.5 48 Z " /><path fill="rgb(246,149,148)" stroke="rgb(246,149,148)" stroke-width="1" opacity="0.3764705882352941" d="M 2.5 63 Q 10.8 87.7 29.5 102 L 81.5 147 Q 105 123.7 131 104 Q 129.9 101.3 132.5 102 Q 151.2 87.7 159.5 63 L 160 65.5 L 151 83.5 L 129.5 106 Q 105.2 124.2 84.5 146 L 80.5 148 L 32.5 106 L 15 88.5 L 4 71.5 L 2.5 63 Z " /><path fill="rgb(221,17,19)" stroke="rgb(221,17,19)" stroke-width="1" opacity="0.996078431372549" d="M 32.5 1 L 37 1.5 L 23.5 5 L 9 17.5 L 3 28.5 Q 3.9 34.9 1.5 38 L 1 32.5 Q 4.6 17.1 15.5 9 Q 22.3 3.3 32.5 1 Z " /><path fill="rgb(221,17,19)" stroke="rgb(221,17,19)" stroke-width="1" opacity="0.996078431372549" d="M 45.5 1 L 50.5 1 L 57.5 3 Q 67.9 7.6 75 15.5 L 80 22.5 L 75 18.5 L 67.5 10 Q 65.4 6.1 60 7 Q 61.3 4 57.5 5 L 54.5 3 L 45.5 2 L 45.5 1 Z " /><path fill="rgb(221,17,19)" stroke="rgb(221,17,19)" stroke-width="1" opacity="0.996078431372549" d="M 111.5 1 L 116 1.5 Q 113.3 3.8 107.5 3 L 107.5 2 L 111.5 1 Z " /><path fill="rgb(221,17,19)" stroke="rgb(221,17,19)" stroke-width="1" opacity="0.996078431372549" d="M 124.5 1 Q 144.3 2.7 153 15.5 L 160 28.5 L 161 37.5 L 160 37.5 L 159 28.5 L 155 20 Q 152 21.3 153 17.5 L 141.5 7 L 133.5 3 L 124.5 2 L 124.5 1 Z " /><path fill="rgb(221,17,19)" stroke="rgb(221,17,19)" stroke-width="1" opacity="0.996078431372549" d="M 104.5 3 L 106 3.5 Q 94.4 8.4 87 17.5 L 81.5 25 L 80 24.5 L 82 24 Q 84.6 16.2 91.5 11 L 104.5 3 Z " /><path fill="rgb(221,17,19)" stroke="rgb(221,17,19)" stroke-width="1" opacity="0.996078431372549" d="M 1.5 48 L 3 61.5 L 2 61.5 L 1.5 48 Z " /><path fill="rgb(221,17,19)" stroke="rgb(221,17,19)" stroke-width="1" opacity="0.996078431372549" d="M 160.5 49 L 161 55.5 L 159.5 62 L 159 55.5 L 160.5 49 Z " /><path fill="rgb(221,17,19)" stroke="rgb(221,17,19)" stroke-width="1" opacity="0.996078431372549" d="M 3.5 63 L 11 79.5 L 9 78.5 L 4 68.5 L 3.5 63 Z " /><path fill="rgb(221,17,19)" stroke="rgb(221,17,19)" stroke-width="1" opacity="0.996078431372549" d="M 158.5 63 L 159 65.5 Q 150.2 88.2 132.5 102 L 129.5 104 L 80.5 147 L 17 89.5 L 11 81.5 L 15 84.5 L 17.5 88 Q 19.8 87.3 19 89.5 L 23 92 Q 21.5 95.8 24.5 95 Q 32.8 105.6 44 112 L 45.5 115 L 68 133 Q 66.9 135.7 69.5 135 L 77 141 L 79.5 145 Q 84.3 145.8 85 142.5 Q 84.3 140.3 86.5 141 L 93 135.5 L 94.5 133 L 112 118.5 Q 111.3 116.3 113.5 117 L 129 103.5 Q 128.3 101.3 130.5 102 L 139.5 93 L 141 93 L 153 76.5 L 158.5 63 Z " /></svg>